<?xml version="1.0" encoding="utf-8"?>
<svg viewBox="48 197.9 101.3 101.3" xmlns="http://www.w3.org/2000/svg">
  <defs>
    <linearGradient id="linearGradientSke8mc8dcgly" x1="0" y1="0.5" x2="1" y2="0.5" data-uid="o_en6a36c62_5">
      <stop id="_3m4cezOni4tb2P8V2Ksai" offset="0" stop-color="rgb(67, 207, 217)" data-uid="o_en6a36c62_6"/>
      <stop id="_j0VHyOT3q9pLPviRbj7a9" offset="1" stop-color="rgb(116, 209, 76)" data-uid="o_en6a36c62_7"/>
    </linearGradient>
  </defs>
  <path xmlns="http://www.w3.org/2000/svg" d="M 143.527 279.115 C 143.527 286.921 137.343 293.272 129.738 293.272 L 74.414 293.272 L 69.214 288.057 L 69.813 288.057 L 122.927 288.057 C 131.484 288.057 138.447 280.907 138.447 272.119 L 138.447 224.356 L 140.186 224.356 C 142.028 224.356 143.527 225.896 143.527 227.789 L 143.527 279.115 Z M 57.474 277.188 L 118.748 277.188 C 123.774 277.188 127.862 272.989 127.862 267.828 L 127.862 214.695 L 129.333 214.695 C 131.176 214.695 132.674 216.235 132.674 218.126 L 132.674 272.119 C 132.674 277.639 128.3 282.129 122.927 282.129 L 63.564 282.129 L 57.474 277.188 Z M 53.773 203.828 L 118.748 203.828 C 120.59 203.828 122.089 205.366 122.089 207.258 L 122.089 267.828 C 122.089 269.722 120.59 271.259 118.748 271.259 L 53.773 271.259 L 53.773 203.828 Z M 140.186 218.429 L 138.447 218.429 L 138.447 218.126 C 138.447 212.966 134.357 208.767 129.333 208.767 L 127.862 208.767 L 127.862 207.258 C 127.862 202.097 123.774 197.9 118.748 197.9 L 48 197.9 L 48 277.188 L 72.41 299.2 L 129.738 299.2 C 140.524 299.2 149.3 290.19 149.3 279.115 L 149.3 227.789 C 149.3 222.626 145.212 218.429 140.186 218.429 Z" fill-rule="evenodd" fill="url(#linearGradientSke8mc8dcgly)" style=""/>
</svg>